<svg xmlns="http://www.w3.org/2000/svg" xmlns:xlink="http://www.w3.org/1999/xlink" width="640" height="168.55"><rect width="640" height="168.55" rx="5" ry="5" class="a"/><svg y="0%" x="0%"><circle cx="20" cy="20" r="6" fill="#ff5f58"/><circle cx="40" cy="20" r="6" fill="#ffbd2e"/><circle cx="60" cy="20" r="6" fill="#18c132"/></svg><svg height="108.55" viewBox="0 0 60 10.855" width="600" x="15" xmlns="http://www.w3.org/2000/svg" xmlns:xlink="http://www.w3.org/1999/xlink" y="50"><style>@keyframes k{0%{transform:translateX(0)}7.7%{transform:translateX(-60px)}15%{transform:translateX(-120px)}27.8%{transform:translateX(-180px)}96.2%{transform:translateX(-240px)}to{transform:translateX(-300px)}}.a{fill:#282d35}.f,.g,.h{white-space:pre}.f{fill:#a8cc8c;font-weight:700}.g,.h{fill:#b9c0cb}.h{fill:#71bef2;font-weight:700}</style><g font-family="Monaco,Consolas,Menlo,'Bitstream Vera Sans Mono','Powerline Symbols',monospace" font-size="1.67"><defs><symbol id="1"><text y="1.67" class="f">yel_iei@Yel-iei</text><text x="15.03" y="1.67" class="g">:</text><text x="16.032" y="1.67" class="h">~</text><text x="17.034" y="1.67" class="g">$</text></symbol><symbol id="2"><text y="1.67" class="f">yel_iei@Yel-iei</text><text x="15.03" y="1.67" class="g">:</text><text x="16.032" y="1.67" class="h">~</text><text x="17.034" y="1.67" class="g">$</text><text x="19.038" y="1.67" class="g">whatami</text><text x="27.054" y="1.67" class="g">test.jpg</text></symbol><symbol id="3"><text y="1.67" class="g">The</text><text x="4.008" y="1.67" class="g">image</text><text x="10.02" y="1.67" class="g">&apos;test.jpg&apos;</text><text x="21.042" y="1.67" class="g">contains</text><text x="30.06" y="1.67" class="g">the</text><text x="34.068" y="1.67" class="g">following</text><text x="44.088" y="1.67" class="g">segments:</text><text x="54.108" y="1.67" class="g">backgr</text></symbol><symbol id="4"><text y="1.67" class="g">ound,</text><text x="6.012" y="1.67" class="g">person,</text><text x="14.028" y="1.67" class="g">car,</text><text x="19.038" y="1.67" class="g">motorbike.</text></symbol><symbol id="a"><path fill="transparent" d="M0 0h60v6H0z"/></symbol><symbol id="b"><path fill="#6f7683" d="M0 0h1.102v2.171H0z"/></symbol></defs><path class="a" d="M0 0h60v10.855H0z"/><g style="animation-duration:7.077037s;animation-iteration-count:infinite;animation-name:k;animation-timing-function:steps(1,end)"><svg width="360"><svg><use xlink:href="#a"/><use xlink:href="#b" x="-.004"/></svg><svg x="60"><use xlink:href="#a"/><use xlink:href="#b" x="18.996"/><use xlink:href="#1"/></svg><svg x="120"><use xlink:href="#a"/><use xlink:href="#b" x="34.996"/><use xlink:href="#2"/></svg><svg x="180"><use xlink:href="#a"/><use xlink:href="#b" x="-.004" y="2.146"/><use xlink:href="#2"/></svg><svg x="240"><use xlink:href="#a"/><use xlink:href="#b" x="-.004" y="6.488"/><use xlink:href="#2"/><use xlink:href="#3" y="2.171"/><use xlink:href="#4" y="4.342"/></svg><svg x="300"><use xlink:href="#a"/><use xlink:href="#b" x="18.996" y="6.488"/><use xlink:href="#2"/><use xlink:href="#3" y="2.171"/><use xlink:href="#4" y="4.342"/><use xlink:href="#1" y="6.513"/></svg></svg></g></g></svg></svg>