<svg xmlns="http://www.w3.org/2000/svg" xmlns:xlink="http://www.w3.org/1999/xlink" width="640" height="450.78"><rect width="640" height="450.78" rx="5" ry="5" class="a"/><svg y="0%" x="0%"><circle cx="20" cy="20" r="6" fill="#ff5f58"/><circle cx="40" cy="20" r="6" fill="#ffbd2e"/><circle cx="60" cy="20" r="6" fill="#18c132"/></svg><svg height="390.78" viewBox="0 0 60 39.078" width="600" x="15" xmlns="http://www.w3.org/2000/svg" xmlns:xlink="http://www.w3.org/1999/xlink" y="50"><style>@keyframes gC{0%{transform:translateX(0)}2.4%{transform:translateX(-60px)}8.3%{transform:translateX(-120px)}18.9%{transform:translateX(-180px)}97.7%{transform:translateX(-240px)}99.8%{transform:translateX(-1260px)}to{transform:translateX(-1320px)}}.a{fill:#282d35}.f,.g,.h{white-space:pre}.f{fill:#a8cc8c;font-weight:700}.g,.h{fill:#b9c0cb}.h{fill:#71bef2;font-weight:700}.S{fill:#4e6475}.T{fill:#3b90d4;white-space:pre}.U{fill:#44a4e0}.V{fill:#0779e7;white-space:pre}.W{fill:#0d72d8}.X{fill:#0672e6;white-space:pre}.Y{fill:#285b82}.Z{fill:#066be1;white-space:pre}.aa{fill:#1c648a}.ab{fill:#0e71db;white-space:pre}.ac{fill:#074267}.ad{fill:#126ec4;white-space:pre}.ae{fill:#052a47}.af{fill:#155fa5;white-space:pre}.ag{fill:#0e4d7b}.ah{fill:#4e6a95;white-space:pre}.ai{fill:#01377e}.aj{fill:#2d3968;white-space:pre}.ak{fill:#103358}.al{fill:#142243;white-space:pre}.am{fill:#42699f}.an{fill:#40659a;white-space:pre}.ao{fill:#021f3a}.ap{fill:#0b2b56;white-space:pre}.aq{fill:#062844}.ar{fill:#022347;white-space:pre}.as{fill:#042644}.at{fill:#03264e;white-space:pre}.au{fill:#09314f}.av{fill:#022b58;white-space:pre}.aw{fill:#002243}.ax{fill:#023060;white-space:pre}.ay{fill:#075579}.az{fill:#053c6e;white-space:pre}.aA{fill:#002648}.aB{fill:#033666;white-space:pre}.aC{fill:#02466d}.aD{fill:#044170;white-space:pre}.aE{fill:#026e97}.aF{fill:#054776;white-space:pre}.aO{fill:#8f9bb6}.aP{fill:#6980a3;white-space:pre}.aQ{fill:#2287df}.aR{fill:#193766;white-space:pre}.aS{fill:#0761d1}.aT{fill:#072575;white-space:pre}.aU{fill:#1157ac}.aV{fill:#051b72;white-space:pre}.aW{fill:#025ed4}.aX{fill:#052176;white-space:pre}.aY{fill:#0456c3}.aZ{fill:#042b84;white-space:pre}.ba{fill:#1049a5}.bb{fill:#052b81;white-space:pre}.bc{fill:#0c45a4}.bd{fill:#0b4097;white-space:pre}.be{fill:#034dbe}.bf{fill:#0458c0;white-space:pre}.bg{fill:#084cb1}.bh{fill:#0348a1;white-space:pre}.bi{fill:#051d4e}.bj{fill:#053384;white-space:pre}.bk{fill:#0e6bd6}.bl{fill:#1547a5;white-space:pre}.bm{fill:#117cef}.bn{fill:#135bc2;white-space:pre}.bW{fill:#727f95}.bX{fill:#6c7279;white-space:pre}.bY{fill:#232628}.bZ{fill:#383732;white-space:pre}.ca{fill:#2c344d}.cb{fill:#272a2a;white-space:pre}.cc{fill:#030f58}.cd{fill:#384371;white-space:pre}.ce{fill:#031053}.cf{fill:#717694;white-space:pre}.cg{fill:#020d53}.ch{fill:#676f90;white-space:pre}.ci{fill:#01064f}.cj{fill:#4b5480;white-space:pre}.ck{fill:#000554}.cl{fill:#394174;white-space:pre}.cm{fill:#030d5e}.cn{fill:#333d74;white-space:pre}.co{fill:#041361}.cp{fill:#2e3c77;white-space:pre}.cq{fill:#021871}.cr{fill:#243574;white-space:pre}.cs{fill:#022d8f}.ct{fill:#1e2e6d;white-space:pre}.cu{fill:#1d69b7}.cv{fill:#23346a;white-space:pre}.cw{fill:#063d9e}.cx{fill:#15171c;white-space:pre}.cy{fill:#0b41a9}.cz{fill:#1c1e24;white-space:pre}.cA{fill:#4c95f5}.cB{fill:#072a8a;white-space:pre}.cC{fill:#789ed3}.cD{fill:#0954dd;white-space:pre}.cE{fill:#5984c6}.cF{fill:#727494;white-space:pre}.cG{fill:#1852b5}.cH{fill:#4d5a73;white-space:pre}.cI{fill:#0535ab}.cJ{fill:#404860;white-space:pre}.cK{fill:#0330b3}.cL{fill:#414a60;white-space:pre}.cM{fill:#022b9f}.cN{fill:#404767;white-space:pre}.cO{fill:#012c9a}.cP{fill:#11184f;white-space:pre}.cQ{fill:#012a92}.cR{fill:#0a1539;white-space:pre}.dk{fill:#7d8385}.dl{fill:#747e80;white-space:pre}.dm{fill:#363837}.dn{fill:#20252b;white-space:pre}.do{fill:#28292a}.dp{fill:#363737;white-space:pre}.dq{fill:#454c66}.dr{fill:#53535c;white-space:pre}.ds{fill:#3f538f}.dt{fill:#9194a0;white-space:pre}.du{fill:#1a3788}.dv{fill:#9b9aa4;white-space:pre}.dw{fill:#24408b}.dx{fill:#7c829f;white-space:pre}.dy{fill:#394d8a}.dz{fill:#53669c;white-space:pre}.dA{fill:#525d8c}.dB{fill:#224290;white-space:pre}.dC{fill:#687197}.dD{fill:#08338d;white-space:pre}.dE{fill:#667096}.dF{fill:#1a408f;white-space:pre}.dG{fill:#6c7390}.dH{fill:#6172a0;white-space:pre}.dI{fill:#202c4b}.dJ{fill:#393c4a;white-space:pre}.dK{fill:#433e39}.dL{fill:#2f2b28;white-space:pre}.dM{fill:#514a43}.dN{fill:#322723;white-space:pre}.dO{fill:#22273b}.dP{fill:#212224;white-space:pre}.dQ{fill:#083fb7}.dR{fill:#203479;white-space:pre}.dS{fill:#013dc6}.dT{fill:#011d79;white-space:pre}.dU{fill:#0331a6}.dV{fill:#1d2e58;white-space:pre}.dW{fill:#0c2675}.dX{fill:#545d6c;white-space:pre}.dY{fill:#081953}.dZ{fill:#1f3c70;white-space:pre}.ea{fill:#06072e}.eb{fill:#1a366b;white-space:pre}.ec{fill:#010135}.ed{fill:#183369;white-space:pre}.ee{fill:#101827}.ef{fill:#414d65;white-space:pre}.eg{fill:#0e0e11}.eh{fill:#1b1d1f;white-space:pre}.ei{fill:#0e0f11}.ej{fill:#191a1c;white-space:pre}.ek{fill:#131a27}.el{fill:#1a1c1f;white-space:pre}.em{fill:#1d2e45}.en{fill:#1b1e21;white-space:pre}.eo{fill:#111822}.ep{fill:#191c1f;white-space:pre}.eq{fill:#0e1013}.er{fill:#0e1014}.es{fill:#232935;white-space:pre}.et{fill:#244673}.eu{fill:#49536f;white-space:pre}.ez{fill:#8f9793}.eA{fill:#000;white-space:pre}.eB{fill:#4a4f51}.eC{fill:#524e43;white-space:pre}.eD{fill:#37342d}.eE{fill:#534f43;white-space:pre}.eF{fill:#3e372d}.eG{fill:#141412;white-space:pre}.eH{fill:#5d5f60}.eI{fill:#0a0d0e;white-space:pre}.eJ{fill:#6b7c96}.eK{fill:#141f27;white-space:pre}.eL{fill:#58698b}.eM{fill:#0a1119;white-space:pre}.eN{fill:#657597}.eO{fill:#0f1216;white-space:pre}.eP{fill:#757f9a}.eQ{fill:#363840;white-space:pre}.eR{fill:#898a9a}.eS{fill:#44495e;white-space:pre}.eT{fill:#6d7694}.eU{fill:#6e6d7d;white-space:pre}.eV{fill:#6a799f}.eW{fill:#817c85;white-space:pre}.eX{fill:#504f56}.eY{fill:#666467;white-space:pre}.eZ{fill:#594f48}.fa{fill:#251317;white-space:pre}.fb{fill:#454140}.fc{fill:#4c4a4c;white-space:pre}.fd{fill:#43403d}.fe{fill:#171717;white-space:pre}.ff{fill:#3d496e}.fg{fill:#3e4560;white-space:pre}.fx{fill:#1d1e1f}.fN{fill:#020203}.ge{fill:#000001;white-space:pre}</style><g font-family="Monaco,Consolas,Menlo,'Bitstream Vera Sans Mono','Powerline Symbols',monospace" font-size="1.67"><defs><symbol id="1"><text y="1.67" class="f">yel_iei@Yel-iei</text><text x="15.03" y="1.67" class="g">:</text><text x="16.032" y="1.67" class="h">~</text><text x="17.034" y="1.67" class="g">$</text></symbol><symbol id="2"><text y="1.67" class="f">yel_iei@Yel-iei</text><text x="15.03" y="1.67" class="g">:</text><text x="16.032" y="1.67" class="h">~</text><text x="17.034" y="1.67" class="g">$</text><text x="19.038" y="1.67" class="g">whatami</text><text x="27.054" y="1.67" class="g">car.jpg</text><text x="35.07" y="1.67" class="g">--show</text><text x="42.084" y="1.67" class="g">&apos;car&apos;</text></symbol><symbol id="3"><text y="1.67" class="g">The</text><text x="4.008" y="1.67" class="g">image</text><text x="10.02" y="1.67" class="g">&apos;car.jpg&apos;</text><text x="20.04" y="1.67" class="g">contains</text><text x="29.058" y="1.67" class="g">the</text><text x="33.066" y="1.67" class="g">following</text><text x="43.086" y="1.67" class="g">segments:</text><text x="53.106" y="1.67" class="g">backgro</text></symbol><symbol id="4"><text y="1.67" class="g">und,</text><text x="5.01" y="1.67" class="g">car.</text></symbol><symbol id="5"><path fill="#84bae0" d="M10.02 0h1v2.171h-1z"/><text x="10.02" y="1.67" style="white-space:pre" fill="#235c86">▄</text><path fill="#5180a8" d="M11.022 0h1v2.171h-1z"/><text x="11.022" y="1.67" style="white-space:pre" fill="#1c6786">▄</text><path fill="#1b527c" d="M12.024 0h1v2.171h-1z"/><text x="12.024" y="1.67" style="white-space:pre" fill="#2d90af">▄</text><path fill="#1c4560" d="M13.026 0h1v2.171h-1z"/><text x="13.026" y="1.67" style="white-space:pre" fill="#0f3a54">▄</text><path fill="#14354c" d="M14.028 0h1v2.171h-1z"/><text x="14.028" y="1.67" style="white-space:pre" fill="#0d4c69">▄</text><path fill="#2f6b8c" d="M15.03 0h1v2.171h-1z"/><text x="15.03" y="1.67" style="white-space:pre" fill="#0e5672">▄</text><path fill="#2167b3" d="M16.032 0h1v2.171h-1z"/><text x="16.032" y="1.67" style="white-space:pre" fill="#376890">▄</text><path fill="#18415f" d="M17.034 0h1v2.171h-1z"/><text x="17.034" y="1.67" style="white-space:pre" fill="#286c95">▄</text><path fill="#113c5d" d="M18.036 0h1v2.171h-1z"/><text x="18.036" y="1.67" style="white-space:pre" fill="#21708c">▄</text><path fill="#032e53" d="M19.038 0h1v2.171h-1z"/><text x="19.038" y="1.67" style="white-space:pre" fill="#042c4c">▄</text><path fill="#033258" d="M20.04 0h1v2.171h-1z"/><text x="20.04" y="1.67" style="white-space:pre" fill="#033052">▄</text><path fill="#04335b" d="M21.042 0h1v2.171h-1z"/><text x="21.042" y="1.67" style="white-space:pre" fill="#053e62">▄</text><path fill="#05345d" d="M22.044 0h1v2.171h-1z"/><text x="22.044" y="1.67" style="white-space:pre" fill="#012b50">▄</text><path fill="#063d6a" d="M23.046 0h1v2.171h-1z"/><text x="23.046" y="1.67" style="white-space:pre" fill="#03385d">▄</text><path fill="#0d4c7b" d="M24.048 0h1v2.171h-1z"/><text x="24.048" y="1.67" style="white-space:pre" fill="#043d65">▄</text><path fill="#13578a" d="M25.05 0h1v2.171h-1z"/><text x="25.05" y="1.67" style="white-space:pre" fill="#05729e">▄</text><path fill="#3a6f99" d="M26.052 0h1v2.171h-1z"/><text x="26.052" y="1.67" style="white-space:pre" fill="#025b8b">▄</text><path fill="#5d9fc0" d="M27.054 0h1v2.171h-1z"/><text x="27.054" y="1.67" style="white-space:pre" fill="#0f5079">▄</text></symbol><symbol id="6"><path class="S" d="M7.014 0h1v2.171h-1z"/><text x="7.014" y="1.67" class="T">▄</text><path class="U" d="M8.016 0h1v2.171h-1z"/><text x="8.016" y="1.67" class="V">▄</text><path class="W" d="M9.018 0h1v2.171h-1z"/><text x="9.018" y="1.67" class="X">▄</text><path class="Y" d="M10.02 0h1v2.171h-1z"/><text x="10.02" y="1.67" class="Z">▄</text><path class="aa" d="M11.022 0h1v2.171h-1z"/><text x="11.022" y="1.67" class="ab">▄</text><path class="ac" d="M12.024 0h1v2.171h-1z"/><text x="12.024" y="1.67" class="ad">▄</text><path class="ae" d="M13.026 0h1v2.171h-1z"/><text x="13.026" y="1.67" class="af">▄</text><path class="ag" d="M14.028 0h1v2.171h-1z"/><text x="14.028" y="1.67" class="ah">▄</text><path class="ai" d="M15.03 0h1v2.171h-1z"/><text x="15.03" y="1.67" class="aj">▄</text><path class="ak" d="M16.032 0h1v2.171h-1z"/><text x="16.032" y="1.67" class="al">▄</text><path class="am" d="M17.034 0h1v2.171h-1z"/><text x="17.034" y="1.67" class="an">▄</text><path class="ao" d="M18.036 0h1v2.171h-1z"/><text x="18.036" y="1.67" class="ap">▄</text><path class="aq" d="M19.038 0h1v2.171h-1z"/><text x="19.038" y="1.67" class="ar">▄</text><path class="as" d="M20.04 0h1v2.171h-1z"/><text x="20.04" y="1.67" class="at">▄</text><path class="au" d="M21.042 0h1v2.171h-1z"/><text x="21.042" y="1.67" class="av">▄</text><path class="aw" d="M22.044 0h1v2.171h-1z"/><text x="22.044" y="1.67" class="ax">▄</text><path class="ay" d="M23.046 0h1v2.171h-1z"/><text x="23.046" y="1.67" class="az">▄</text><path class="aA" d="M24.048 0h1v2.171h-1z"/><text x="24.048" y="1.67" class="aB">▄</text><path class="aC" d="M25.05 0h1v2.171h-1z"/><text x="25.05" y="1.67" class="aD">▄</text><path class="aE" d="M26.052 0h1v2.171h-1z"/><text x="26.052" y="1.67" class="aF">▄</text><path fill="#026995" d="M27.054 0h1v2.171h-1z"/><text x="27.054" y="1.67" style="white-space:pre" fill="#054e7e">▄</text><path fill="#064972" d="M28.056 0h1v2.171h-1z"/><text x="28.056" y="1.67" style="white-space:pre" fill="#055787">▄</text><path fill="#387899" d="M29.058 0h1v2.171h-1z"/><text x="29.058" y="1.67" style="white-space:pre" fill="#09416c">▄</text><path fill="#53a5d2" d="M30.06 0h1v2.171h-1z"/><text x="30.06" y="1.67" style="white-space:pre" fill="#10326e">▄</text></symbol><symbol id="7"><path class="aO" d="M6.012 0h1v2.171h-1z"/><text x="6.012" y="1.67" class="aP">▄</text><path class="aQ" d="M7.014 0h1v2.171h-1z"/><text x="7.014" y="1.67" class="aR">▄</text><path class="aS" d="M8.016 0h1v2.171h-1z"/><text x="8.016" y="1.67" class="aT">▄</text><path class="aU" d="M9.018 0h1v2.171h-1z"/><text x="9.018" y="1.67" class="aV">▄</text><path class="aW" d="M10.02 0h1v2.171h-1z"/><text x="10.02" y="1.67" class="aX">▄</text><path class="aY" d="M11.022 0h1v2.171h-1z"/><text x="11.022" y="1.67" class="aZ">▄</text><path class="ba" d="M12.024 0h1v2.171h-1z"/><text x="12.024" y="1.67" class="bb">▄</text><path class="bc" d="M13.026 0h1v2.171h-1z"/><text x="13.026" y="1.67" class="bd">▄</text><path class="be" d="M14.028 0h1v2.171h-1z"/><text x="14.028" y="1.67" class="bf">▄</text><path class="bg" d="M15.03 0h1v2.171h-1z"/><text x="15.03" y="1.67" class="bh">▄</text><path class="bi" d="M16.032 0h1v2.171h-1z"/><text x="16.032" y="1.67" class="bj">▄</text><path class="bk" d="M17.034 0h1v2.171h-1z"/><text x="17.034" y="1.67" class="bl">▄</text><path class="bm" d="M18.036 0h1v2.171h-1z"/><text x="18.036" y="1.67" class="bn">▄</text><path fill="#1881ee" d="M19.038 0h1v2.171h-1z"/><text x="19.038" y="1.67" style="white-space:pre" fill="#026ded">▄</text><path fill="#1d78e1" d="M20.04 0h1v2.171h-1z"/><text x="20.04" y="1.67" style="white-space:pre" fill="#1083f9">▄</text><path fill="#096ad7" d="M21.042 0h1v2.171h-1z"/><text x="21.042" y="1.67" style="white-space:pre" fill="#2f8af6">▄</text><path fill="#036ad9" d="M22.044 0h1v2.171h-1z"/><text x="22.044" y="1.67" style="white-space:pre" fill="#076cec">▄</text><path fill="#036dd6" d="M23.046 0h1v2.171h-1z"/><text x="23.046" y="1.67" style="white-space:pre" fill="#025ee5">▄</text><path fill="#0473d4" d="M24.048 0h1v2.171h-1z"/><text x="24.048" y="1.67" style="white-space:pre" fill="#0252dd">▄</text><path fill="#016ed2" d="M25.05 0h1v2.171h-1z"/><text x="25.05" y="1.67" style="white-space:pre" fill="#0153d3">▄</text><path fill="#0670d1" d="M26.052 0h1v2.171h-1z"/><text x="26.052" y="1.67" style="white-space:pre" fill="#0150c3">▄</text><path fill="#0c78d2" d="M27.054 0h1v2.171h-1z"/><text x="27.054" y="1.67" style="white-space:pre" fill="#004cbd">▄</text><path fill="#147fd2" d="M28.056 0h1v2.171h-1z"/><text x="28.056" y="1.67" style="white-space:pre" fill="#0049b8">▄</text><path fill="#1a85d6" d="M29.058 0h1v2.171h-1z"/><text x="29.058" y="1.67" style="white-space:pre" fill="#044eb6">▄</text><path fill="#1981d3" d="M30.06 0h1v2.171h-1z"/><text x="30.06" y="1.67" style="white-space:pre" fill="#014fb4">▄</text><path fill="#2f89d1" d="M31.062 0h1v2.171h-1z"/><text x="31.062" y="1.67" style="white-space:pre" fill="#0050b2">▄</text><path fill="#3f9ad3" d="M32.064 0h1v2.171h-1z"/><text x="32.064" y="1.67" style="white-space:pre" fill="#014eb0">▄</text><path fill="#399cd1" d="M33.066 0h1v2.171h-1z"/><text x="33.066" y="1.67" style="white-space:pre" fill="#0151ad">▄</text><path fill="#3297c9" d="M34.068 0h1v2.171h-1z"/><text x="34.068" y="1.67" style="white-space:pre" fill="#025bb4">▄</text><path fill="#5ab3cd" d="M35.07 0h1v2.171h-1z"/><text x="35.07" y="1.67" style="white-space:pre" fill="#1262b5">▄</text></symbol><symbol id="8"><path class="bW" d="M6.012 0h1v2.171h-1z"/><text x="6.012" y="1.67" class="bX">▄</text><path class="bY" d="M7.014 0h1v2.171h-1z"/><text x="7.014" y="1.67" class="bZ">▄</text><path class="ca" d="M8.016 0h1v2.171h-1z"/><text x="8.016" y="1.67" class="cb">▄</text><path class="cc" d="M9.018 0h1v2.171h-1z"/><text x="9.018" y="1.67" class="cd">▄</text><path class="ce" d="M10.02 0h1v2.171h-1z"/><text x="10.02" y="1.67" class="cf">▄</text><path class="cg" d="M11.022 0h1v2.171h-1z"/><text x="11.022" y="1.67" class="ch">▄</text><path class="ci" d="M12.024 0h1v2.171h-1z"/><text x="12.024" y="1.67" class="cj">▄</text><path class="ck" d="M13.026 0h1v2.171h-1z"/><text x="13.026" y="1.67" class="cl">▄</text><path class="cm" d="M14.028 0h1v2.171h-1z"/><text x="14.028" y="1.67" class="cn">▄</text><path class="co" d="M15.03 0h1v2.171h-1z"/><text x="15.03" y="1.67" class="cp">▄</text><path class="cq" d="M16.032 0h1v2.171h-1z"/><text x="16.032" y="1.67" class="cr">▄</text><path class="cs" d="M17.034 0h1v2.171h-1z"/><text x="17.034" y="1.67" class="ct">▄</text><path class="cu" d="M18.036 0h1v2.171h-1z"/><text x="18.036" y="1.67" class="cv">▄</text><path class="cw" d="M19.038 0h1v2.171h-1z"/><text x="19.038" y="1.67" class="cx">▄</text><path class="cy" d="M20.04 0h1v2.171h-1z"/><text x="20.04" y="1.67" class="cz">▄</text><path class="cA" d="M21.042 0h1v2.171h-1z"/><text x="21.042" y="1.67" class="cB">▄</text><path class="cC" d="M22.044 0h1v2.171h-1z"/><text x="22.044" y="1.67" class="cD">▄</text><path class="cE" d="M23.046 0h1v2.171h-1z"/><text x="23.046" y="1.67" class="cF">▄</text><path class="cG" d="M24.048 0h1v2.171h-1z"/><text x="24.048" y="1.67" class="cH">▄</text><path class="cI" d="M25.05 0h1v2.171h-1z"/><text x="25.05" y="1.67" class="cJ">▄</text><path class="cK" d="M26.052 0h1v2.171h-1z"/><text x="26.052" y="1.67" class="cL">▄</text><path class="cM" d="M27.054 0h1v2.171h-1z"/><text x="27.054" y="1.67" class="cN">▄</text><path class="cO" d="M28.056 0h1v2.171h-1z"/><text x="28.056" y="1.67" class="cP">▄</text><path class="cQ" d="M29.058 0h1v2.171h-1z"/><text x="29.058" y="1.67" class="cR">▄</text><path fill="#022688" d="M30.06 0h1v2.171h-1z"/><text x="30.06" y="1.67" style="white-space:pre" fill="#0e1930">▄</text><path fill="#04257e" d="M31.062 0h1v2.171h-1z"/><text x="31.062" y="1.67" style="white-space:pre" fill="#101a2c">▄</text><path fill="#1b3a7f" d="M32.064 0h1v2.171h-1z"/><text x="32.064" y="1.67" style="white-space:pre" fill="#101a2a">▄</text><path fill="#17367b" d="M33.066 0h1v2.171h-1z"/><text x="33.066" y="1.67" style="white-space:pre" fill="#17202e">▄</text><path fill="#022272" d="M34.068 0h1v2.171h-1z"/><text x="34.068" y="1.67" style="white-space:pre" fill="#0f1928">▄</text><path fill="#022777" d="M35.07 0h1v2.171h-1z"/><text x="35.07" y="1.67" style="white-space:pre" fill="#0f1829">▄</text><path fill="#022b78" d="M36.072 0h1v2.171h-1z"/><text x="36.072" y="1.67" style="white-space:pre" fill="#101a2e">▄</text><path fill="#1e568e" d="M37.074 0h1v2.171h-1z"/><text x="37.074" y="1.67" style="white-space:pre" fill="#5d748d">▄</text><path fill="#5b90b7" d="M38.076 0h1v2.171h-1z"/><text x="38.076" y="1.67" style="white-space:pre" fill="#6d98b3">▄</text></symbol><symbol id="9"><path class="dk" d="M6.012 0h1v2.171h-1z"/><text x="6.012" y="1.67" class="dl">▄</text><path class="dm" d="M7.014 0h1v2.171h-1z"/><text x="7.014" y="1.67" class="dn">▄</text><path class="do" d="M8.016 0h1v2.171h-1z"/><text x="8.016" y="1.67" class="dp">▄</text><path class="dq" d="M9.018 0h1v2.171h-1z"/><text x="9.018" y="1.67" class="dr">▄</text><path class="ds" d="M10.02 0h1v2.171h-1z"/><text x="10.02" y="1.67" class="dt">▄</text><path class="du" d="M11.022 0h1v2.171h-1z"/><text x="11.022" y="1.67" class="dv">▄</text><path class="dw" d="M12.024 0h1v2.171h-1z"/><text x="12.024" y="1.67" class="dx">▄</text><path class="dy" d="M13.026 0h1v2.171h-1z"/><text x="13.026" y="1.67" class="dz">▄</text><path class="dA" d="M14.028 0h1v2.171h-1z"/><text x="14.028" y="1.67" class="dB">▄</text><path class="dC" d="M15.03 0h1v2.171h-1z"/><text x="15.03" y="1.67" class="dD">▄</text><path class="dE" d="M16.032 0h1v2.171h-1z"/><text x="16.032" y="1.67" class="dF">▄</text><path class="dG" d="M17.034 0h1v2.171h-1z"/><text x="17.034" y="1.67" class="dH">▄</text><path class="dI" d="M18.036 0h1v2.171h-1z"/><text x="18.036" y="1.67" class="dJ">▄</text><path class="dK" d="M19.038 0h1v2.171h-1z"/><text x="19.038" y="1.67" class="dL">▄</text><path class="dM" d="M20.04 0h1v2.171h-1z"/><text x="20.04" y="1.67" class="dN">▄</text><path class="dO" d="M21.042 0h1v2.171h-1z"/><text x="21.042" y="1.67" class="dP">▄</text><path class="dQ" d="M22.044 0h1v2.171h-1z"/><text x="22.044" y="1.67" class="dR">▄</text><path class="dS" d="M23.046 0h1v2.171h-1z"/><text x="23.046" y="1.67" class="dT">▄</text><path class="dU" d="M24.048 0h1v2.171h-1z"/><text x="24.048" y="1.67" class="dV">▄</text><path class="dW" d="M25.05 0h1v2.171h-1z"/><text x="25.05" y="1.67" class="dX">▄</text><path class="dY" d="M26.052 0h1v2.171h-1z"/><text x="26.052" y="1.67" class="dZ">▄</text><path class="ea" d="M27.054 0h1v2.171h-1z"/><text x="27.054" y="1.67" class="eb">▄</text><path class="ec" d="M28.056 0h1v2.171h-1z"/><text x="28.056" y="1.67" class="ed">▄</text><path class="ee" d="M29.058 0h1v2.171h-1z"/><text x="29.058" y="1.67" class="ef">▄</text><path class="eg" d="M30.06 0h1v2.171h-1z"/><text x="30.06" y="1.67" class="eh">▄</text><path class="ei" d="M31.062 0h1v2.171h-1z"/><text x="31.062" y="1.67" class="ej">▄</text><path class="ek" d="M32.064 0h1v2.171h-1z"/><text x="32.064" y="1.67" class="el">▄</text><path class="em" d="M33.066 0h1v2.171h-1z"/><text x="33.066" y="1.67" class="en">▄</text><path class="eo" d="M34.068 0h1v2.171h-1z"/><text x="34.068" y="1.67" class="ep">▄</text><path class="eq" d="M35.07 0h1v2.171h-1z"/><text x="35.07" y="1.67" class="ep">▄</text><path class="er" d="M36.072 0h1v2.171h-1z"/><text x="36.072" y="1.67" class="es">▄</text><path class="et" d="M37.074 0h1v2.171h-1z"/><text x="37.074" y="1.67" class="eu">▄</text><path fill="#1f3b65" d="M38.076 0h1v2.171h-1z"/><text x="38.076" y="1.67" style="white-space:pre" fill="#474950">▄</text><path fill="#293e57" d="M39.078 0h1v2.171h-1z"/><text x="39.078" y="1.67" style="white-space:pre" fill="#616973">▄</text></symbol><symbol id="10"><path class="ez" d="M6.012 0h1v2.171h-1z"/><text x="6.012" y="1.67" class="eA">▄</text><path class="eB" d="M7.014 0h1v2.171h-1z"/><text x="7.014" y="1.67" class="eC">▄</text><path class="eD" d="M8.016 0h1v2.171h-1z"/><text x="8.016" y="1.67" class="eE">▄</text><path class="eF" d="M9.018 0h1v2.171h-1z"/><text x="9.018" y="1.67" class="eG">▄</text><path class="eH" d="M10.02 0h1v2.171h-1z"/><text x="10.02" y="1.67" class="eI">▄</text><path class="eJ" d="M11.022 0h1v2.171h-1z"/><text x="11.022" y="1.67" class="eK">▄</text><path class="eL" d="M12.024 0h1v2.171h-1z"/><text x="12.024" y="1.67" class="eM">▄</text><path class="eN" d="M13.026 0h1v2.171h-1z"/><text x="13.026" y="1.67" class="eO">▄</text><path class="eP" d="M14.028 0h1v2.171h-1z"/><text x="14.028" y="1.67" class="eQ">▄</text><path class="eR" d="M15.03 0h1v2.171h-1z"/><text x="15.03" y="1.67" class="eS">▄</text><path class="eT" d="M16.032 0h1v2.171h-1z"/><text x="16.032" y="1.67" class="eU">▄</text><path class="eV" d="M17.034 0h1v2.171h-1z"/><text x="17.034" y="1.67" class="eW">▄</text><path class="eX" d="M18.036 0h1v2.171h-1z"/><text x="18.036" y="1.67" class="eY">▄</text><path class="eZ" d="M19.038 0h1v2.171h-1z"/><text x="19.038" y="1.67" class="fa">▄</text><path class="fb" d="M20.04 0h1v2.171h-1z"/><text x="20.04" y="1.67" class="fc">▄</text><path class="fd" d="M21.042 0h1v2.171h-1z"/><text x="21.042" y="1.67" class="fe">▄</text><path class="ff" d="M22.044 0h1v2.171h-1z"/><text x="22.044" y="1.67" class="fg">▄</text><path fill="#263d77" d="M23.046 0h1v2.171h-1z"/><text x="23.046" y="1.67" style="white-space:pre" fill="#36436c">▄</text><path fill="#3b3734" d="M24.048 0h1v2.171h-1z"/><text x="24.048" y="1.67" style="white-space:pre" fill="#2c2a35">▄</text><path fill="#303136" d="M25.05 0h1v2.171h-1z"/><text x="25.05" y="1.67" style="white-space:pre" fill="#091648">▄</text><path fill="#1a315f" d="M26.052 0h1v2.171h-1z"/><text x="26.052" y="1.67" style="white-space:pre" fill="#021146">▄</text><path fill="#1d3868" d="M27.054 0h1v2.171h-1z"/><text x="27.054" y="1.67" style="white-space:pre" fill="#030f31">▄</text><path fill="#1d3767" d="M28.056 0h1v2.171h-1z"/><text x="28.056" y="1.67" style="white-space:pre" fill="#060b1a">▄</text><path fill="#193361" d="M29.058 0h1v2.171h-1z"/><text x="29.058" y="1.67" style="white-space:pre" fill="#0a101d">▄</text><path fill="#3a3d44" d="M30.06 0h1v2.171h-1z"/><text x="30.06" y="1.67" style="white-space:pre" fill="#232a38">▄</text><path class="fx" d="M31.062 0h1v2.171h-1z"/><text x="31.062" y="1.67" style="white-space:pre" fill="#262b37">▄</text><path class="fx" d="M32.064 0h1v2.171h-1z"/><text x="32.064" y="1.67" style="white-space:pre" fill="#212530">▄</text><path fill="#1e1f20" d="M33.066 0h1v2.171h-1z"/><text x="33.066" y="1.67" style="white-space:pre" fill="#262830">▄</text><path fill="#1d1e21" d="M34.068 0h1v2.171h-1z"/><text x="34.068" y="1.67" style="white-space:pre" fill="#1a1b23">▄</text><path fill="#1c1f24" d="M35.07 0h1v2.171h-1z"/><text x="35.07" y="1.67" style="white-space:pre" fill="#09080e">▄</text><path fill="#28314d" d="M36.072 0h1v2.171h-1z"/><text x="36.072" y="1.67" style="white-space:pre" fill="#0c0d12">▄</text><path fill="#414c67" d="M37.074 0h1v2.171h-1z"/><text x="37.074" y="1.67" style="white-space:pre" fill="#161c26">▄</text><path fill="#343a45" d="M38.076 0h1v2.171h-1z"/><text x="38.076" y="1.67" style="white-space:pre" fill="#47556a">▄</text><path fill="#97a4a3" d="M39.078 0h1v2.171h-1z"/><text x="39.078" y="1.67" class="eA">▄</text></symbol><symbol id="11"><path class="fN" d="M17.034 0h1v2.171h-1z"/><text x="17.034" y="1.67" class="eA">▄</text><path fill="#2a2726" d="M18.036 0h1v2.171h-1z"/><text x="18.036" y="1.67" style="white-space:pre" fill="#202224">▄</text><path fill="#41474b" d="M19.038 0h1v2.171h-1z"/><text x="19.038" y="1.67" style="white-space:pre" fill="#5a5551">▄</text><path fill="#141516" d="M20.04 0h1v2.171h-1z"/><text x="20.04" y="1.67" style="white-space:pre" fill="#4f5050">▄</text><path fill="#383836" d="M21.042 0h1v2.171h-1z"/><text x="21.042" y="1.67" style="white-space:pre" fill="#3b352e">▄</text><path fill="#3c4053" d="M22.044 0h1v2.171h-1z"/><text x="22.044" y="1.67" style="white-space:pre" fill="#483f33">▄</text><path fill="#334165" d="M23.046 0h1v2.171h-1z"/><text x="23.046" y="1.67" style="white-space:pre" fill="#1e1b16">▄</text><path fill="#213358" d="M24.048 0h1v2.171h-1z"/><text x="24.048" y="1.67" style="white-space:pre" fill="#010001">▄</text><path fill="#1f2c4d" d="M25.05 0h1v2.171h-1z"/><text x="25.05" y="1.67" class="eA">▄</text><path fill="#1d243f" d="M26.052 0h1v2.171h-1z"/><text x="26.052" y="1.67" class="ge">▄</text><path fill="#13172c" d="M27.054 0h1v2.171h-1z"/><text x="27.054" y="1.67" class="eA">▄</text><path fill="#0d101f" d="M28.056 0h1v2.171h-1z"/><text x="28.056" y="1.67" class="eA">▄</text><path fill="#070a12" d="M29.058 0h1v2.171h-1z"/><text x="29.058" y="1.67" class="eA">▄</text><path fill="#04070f" d="M30.06 0h1v2.171h-1z"/><text x="30.06" y="1.67" class="eA">▄</text><path fill="#040711" d="M31.062 0h1v2.171h-1z"/><text x="31.062" y="1.67" class="ge">▄</text><path fill="#070c17" d="M32.064 0h1v2.171h-1z"/><text x="32.064" y="1.67" style="white-space:pre" fill="#020407">▄</text><path fill="#03050e" d="M33.066 0h1v2.171h-1z"/><text x="33.066" y="1.67" class="eA">▄</text><path fill="#040712" d="M34.068 0h1v2.171h-1z"/><text x="34.068" y="1.67" class="eA">▄</text><path fill="#03050b" d="M35.07 0h1v2.171h-1z"/><text x="35.07" y="1.67" style="white-space:pre" fill="#020202">▄</text><path fill="#090c11" d="M36.072 0h1v2.171h-1z"/><text x="36.072" y="1.67" style="white-space:pre" fill="#0c1011">▄</text><path fill="#3e4147" d="M37.074 0h1v2.171h-1z"/><text x="37.074" y="1.67" style="white-space:pre" fill="#1d2f39">▄</text><path fill="#a7a297" d="M38.076 0h1v2.171h-1z"/><text x="38.076" y="1.67" class="eA">▄</text></symbol><symbol id="12"><path fill="#373029" d="M19.038 0h1v2.171h-1z"/><text x="19.038" y="1.67" class="eA">▄</text><path fill="#332c21" d="M20.04 0h1v2.171h-1z"/><text x="20.04" y="1.67" class="eA">▄</text><path fill="#352f26" d="M21.042 0h1v2.171h-1z"/><text x="21.042" y="1.67" class="eA">▄</text><path fill="#131312" d="M22.044 0h1v2.171h-1z"/><text x="22.044" y="1.67" class="eA">▄</text><path fill="#040404" d="M23.046 0h1v2.171h-1z"/><text x="23.046" y="1.67" class="eA">▄</text></symbol><symbol id="13"><text y="1.67" class="g">car.jpg</text></symbol><symbol id="a"><path fill="transparent" d="M0 0h60v18H0z"/></symbol><symbol id="b"><path fill="#6f7683" d="M0 0h1.102v2.171H0z"/></symbol></defs><path class="a" d="M0 0h60v39.078H0z"/><g style="animation-duration:10.656105s;animation-iteration-count:infinite;animation-name:gC;animation-timing-function:steps(1,end)"><svg width="1380"><svg><use xlink:href="#a"/><use xlink:href="#b" x="-.004"/></svg><svg x="60"><use xlink:href="#a"/><use xlink:href="#b" x="18.996"/><use xlink:href="#1"/></svg><svg x="120"><use xlink:href="#a"/><use xlink:href="#b" x="46.996"/><use xlink:href="#2"/></svg><svg x="180"><use xlink:href="#a"/><use xlink:href="#b" x="-.004" y="2.146"/><use xlink:href="#2"/></svg><svg x="240"><use xlink:href="#a"/><use xlink:href="#b" x="-.004" y="6.488"/><use xlink:href="#2"/><use xlink:href="#3" y="2.171"/><use xlink:href="#4" y="4.342"/></svg><svg x="300"><use xlink:href="#a"/><use xlink:href="#b" x="16.996" y="10.83"/><use xlink:href="#2"/><use xlink:href="#3" y="2.171"/><use xlink:href="#4" y="4.342"/></svg><svg x="360"><use xlink:href="#a"/><use xlink:href="#b" x="34.996" y="15.172"/><use xlink:href="#2"/><use xlink:href="#3" y="2.171"/><use xlink:href="#4" y="4.342"/></svg><svg x="420"><use xlink:href="#a"/><use xlink:href="#b" x="3.996" y="21.685"/><use xlink:href="#2"/><use xlink:href="#3" y="2.171"/><use xlink:href="#4" y="4.342"/></svg><svg x="480"><use xlink:href="#a"/><use xlink:href="#b" x="42.996" y="21.685"/><use xlink:href="#2"/><use xlink:href="#3" y="2.171"/><use xlink:href="#4" y="4.342"/><use xlink:href="#5" y="21.71"/></svg><svg x="540"><use xlink:href="#a"/><use xlink:href="#b" x="26.996" y="23.856"/><use xlink:href="#2"/><use xlink:href="#3" y="2.171"/><use xlink:href="#4" y="4.342"/><use xlink:href="#5" y="21.71"/><path class="S" d="M7.014 23.881h1v2.171h-1z"/><text x="7.014" y="25.551" class="T">▄</text><path class="U" d="M8.016 23.881h1v2.171h-1z"/><text x="8.016" y="25.551" class="V">▄</text><path class="W" d="M9.018 23.881h1v2.171h-1z"/><text x="9.018" y="25.551" class="X">▄</text><path class="Y" d="M10.02 23.881h1v2.171h-1z"/><text x="10.02" y="25.551" class="Z">▄</text><path class="aa" d="M11.022 23.881h1v2.171h-1z"/><text x="11.022" y="25.551" class="ab">▄</text><path class="ac" d="M12.024 23.881h1v2.171h-1z"/><text x="12.024" y="25.551" class="ad">▄</text><path class="ae" d="M13.026 23.881h1v2.171h-1z"/><text x="13.026" y="25.551" class="af">▄</text><path class="ag" d="M14.028 23.881h1v2.171h-1z"/><text x="14.028" y="25.551" class="ah">▄</text><path class="ai" d="M15.03 23.881h1v2.171h-1z"/><text x="15.03" y="25.551" class="aj">▄</text><path class="ak" d="M16.032 23.881h1v2.171h-1z"/><text x="16.032" y="25.551" class="al">▄</text><path class="am" d="M17.034 23.881h1v2.171h-1z"/><text x="17.034" y="25.551" class="an">▄</text><path class="ao" d="M18.036 23.881h1v2.171h-1z"/><text x="18.036" y="25.551" class="ap">▄</text><path class="aq" d="M19.038 23.881h1v2.171h-1z"/><text x="19.038" y="25.551" class="ar">▄</text><path class="as" d="M20.04 23.881h1v2.171h-1z"/><text x="20.04" y="25.551" class="at">▄</text><path class="au" d="M21.042 23.881h1v2.171h-1z"/><text x="21.042" y="25.551" class="av">▄</text><path class="aw" d="M22.044 23.881h1v2.171h-1z"/><text x="22.044" y="25.551" class="ax">▄</text><path class="ay" d="M23.046 23.881h1v2.171h-1z"/><text x="23.046" y="25.551" class="az">▄</text><path class="aA" d="M24.048 23.881h1v2.171h-1z"/><text x="24.048" y="25.551" class="aB">▄</text><path class="aC" d="M25.05 23.881h1v2.171h-1z"/><text x="25.05" y="25.551" class="aD">▄</text><path class="aE" d="M26.052 23.881h1v2.171h-1z"/><text x="26.052" y="25.551" class="aF">▄</text></svg><svg x="600"><use xlink:href="#a"/><use xlink:href="#b" x="18.996" y="26.027"/><use xlink:href="#2"/><use xlink:href="#3" y="2.171"/><use xlink:href="#4" y="4.342"/><use xlink:href="#5" y="21.71"/><use xlink:href="#6" y="23.881"/><path class="aO" d="M6.012 26.052h1v2.171h-1z"/><text x="6.012" y="27.722" class="aP">▄</text><path class="aQ" d="M7.014 26.052h1v2.171h-1z"/><text x="7.014" y="27.722" class="aR">▄</text><path class="aS" d="M8.016 26.052h1v2.171h-1z"/><text x="8.016" y="27.722" class="aT">▄</text><path class="aU" d="M9.018 26.052h1v2.171h-1z"/><text x="9.018" y="27.722" class="aV">▄</text><path class="aW" d="M10.02 26.052h1v2.171h-1z"/><text x="10.02" y="27.722" class="aX">▄</text><path class="aY" d="M11.022 26.052h1v2.171h-1z"/><text x="11.022" y="27.722" class="aZ">▄</text><path class="ba" d="M12.024 26.052h1v2.171h-1z"/><text x="12.024" y="27.722" class="bb">▄</text><path class="bc" d="M13.026 26.052h1v2.171h-1z"/><text x="13.026" y="27.722" class="bd">▄</text><path class="be" d="M14.028 26.052h1v2.171h-1z"/><text x="14.028" y="27.722" class="bf">▄</text><path class="bg" d="M15.03 26.052h1v2.171h-1z"/><text x="15.03" y="27.722" class="bh">▄</text><path class="bi" d="M16.032 26.052h1v2.171h-1z"/><text x="16.032" y="27.722" class="bj">▄</text><path class="bk" d="M17.034 26.052h1v2.171h-1z"/><text x="17.034" y="27.722" class="bl">▄</text><path class="bm" d="M18.036 26.052h1v2.171h-1z"/><text x="18.036" y="27.722" class="bn">▄</text></svg><svg x="660"><use xlink:href="#a"/><use xlink:href="#b" x="6.996" y="28.198"/><use xlink:href="#2"/><use xlink:href="#3" y="2.171"/><use xlink:href="#4" y="4.342"/><use xlink:href="#5" y="21.71"/><use xlink:href="#6" y="23.881"/><use xlink:href="#7" y="26.052"/><path class="bW" d="M6.012 28.223h1v2.171h-1z"/><text x="6.012" y="29.893" class="bX">▄</text></svg><svg x="720"><use xlink:href="#a"/><use xlink:href="#b" x="29.996" y="28.198"/><use xlink:href="#2"/><use xlink:href="#3" y="2.171"/><use xlink:href="#4" y="4.342"/><use xlink:href="#5" y="21.71"/><use xlink:href="#6" y="23.881"/><use xlink:href="#7" y="26.052"/><path class="bW" d="M6.012 28.223h1v2.171h-1z"/><text x="6.012" y="29.893" class="bX">▄</text><path class="bY" d="M7.014 28.223h1v2.171h-1z"/><text x="7.014" y="29.893" class="bZ">▄</text><path class="ca" d="M8.016 28.223h1v2.171h-1z"/><text x="8.016" y="29.893" class="cb">▄</text><path class="cc" d="M9.018 28.223h1v2.171h-1z"/><text x="9.018" y="29.893" class="cd">▄</text><path class="ce" d="M10.02 28.223h1v2.171h-1z"/><text x="10.02" y="29.893" class="cf">▄</text><path class="cg" d="M11.022 28.223h1v2.171h-1z"/><text x="11.022" y="29.893" class="ch">▄</text><path class="ci" d="M12.024 28.223h1v2.171h-1z"/><text x="12.024" y="29.893" class="cj">▄</text><path class="ck" d="M13.026 28.223h1v2.171h-1z"/><text x="13.026" y="29.893" class="cl">▄</text><path class="cm" d="M14.028 28.223h1v2.171h-1z"/><text x="14.028" y="29.893" class="cn">▄</text><path class="co" d="M15.03 28.223h1v2.171h-1z"/><text x="15.03" y="29.893" class="cp">▄</text><path class="cq" d="M16.032 28.223h1v2.171h-1z"/><text x="16.032" y="29.893" class="cr">▄</text><path class="cs" d="M17.034 28.223h1v2.171h-1z"/><text x="17.034" y="29.893" class="ct">▄</text><path class="cu" d="M18.036 28.223h1v2.171h-1z"/><text x="18.036" y="29.893" class="cv">▄</text><path class="cw" d="M19.038 28.223h1v2.171h-1z"/><text x="19.038" y="29.893" class="cx">▄</text><path class="cy" d="M20.04 28.223h1v2.171h-1z"/><text x="20.04" y="29.893" class="cz">▄</text><path class="cA" d="M21.042 28.223h1v2.171h-1z"/><text x="21.042" y="29.893" class="cB">▄</text><path class="cC" d="M22.044 28.223h1v2.171h-1z"/><text x="22.044" y="29.893" class="cD">▄</text><path class="cE" d="M23.046 28.223h1v2.171h-1z"/><text x="23.046" y="29.893" class="cF">▄</text><path class="cG" d="M24.048 28.223h1v2.171h-1z"/><text x="24.048" y="29.893" class="cH">▄</text><path class="cI" d="M25.05 28.223h1v2.171h-1z"/><text x="25.05" y="29.893" class="cJ">▄</text><path class="cK" d="M26.052 28.223h1v2.171h-1z"/><text x="26.052" y="29.893" class="cL">▄</text><path class="cM" d="M27.054 28.223h1v2.171h-1z"/><text x="27.054" y="29.893" class="cN">▄</text><path class="cO" d="M28.056 28.223h1v2.171h-1z"/><text x="28.056" y="29.893" class="cP">▄</text><path class="cQ" d="M29.058 28.223h1v2.171h-1z"/><text x="29.058" y="29.893" class="cR">▄</text></svg><svg x="780"><use xlink:href="#a"/><use xlink:href="#b" x="15.996" y="30.369"/><use xlink:href="#2"/><use xlink:href="#3" y="2.171"/><use xlink:href="#4" y="4.342"/><use xlink:href="#5" y="21.71"/><use xlink:href="#6" y="23.881"/><use xlink:href="#7" y="26.052"/><use xlink:href="#8" y="28.223"/><path class="dk" d="M6.012 30.394h1v2.171h-1z"/><text x="6.012" y="32.064" class="dl">▄</text><path class="dm" d="M7.014 30.394h1v2.171h-1z"/><text x="7.014" y="32.064" class="dn">▄</text><path class="do" d="M8.016 30.394h1v2.171h-1z"/><text x="8.016" y="32.064" class="dp">▄</text><path class="dq" d="M9.018 30.394h1v2.171h-1z"/><text x="9.018" y="32.064" class="dr">▄</text><path class="ds" d="M10.02 30.394h1v2.171h-1z"/><text x="10.02" y="32.064" class="dt">▄</text><path class="du" d="M11.022 30.394h1v2.171h-1z"/><text x="11.022" y="32.064" class="dv">▄</text><path class="dw" d="M12.024 30.394h1v2.171h-1z"/><text x="12.024" y="32.064" class="dx">▄</text><path class="dy" d="M13.026 30.394h1v2.171h-1z"/><text x="13.026" y="32.064" class="dz">▄</text><path class="dA" d="M14.028 30.394h1v2.171h-1z"/><text x="14.028" y="32.064" class="dB">▄</text><path class="dC" d="M15.03 30.394h1v2.171h-1z"/><text x="15.03" y="32.064" class="dD">▄</text></svg><svg x="840"><use xlink:href="#a"/><use xlink:href="#b" x="37.996" y="30.369"/><use xlink:href="#2"/><use xlink:href="#3" y="2.171"/><use xlink:href="#4" y="4.342"/><use xlink:href="#5" y="21.71"/><use xlink:href="#6" y="23.881"/><use xlink:href="#7" y="26.052"/><use xlink:href="#8" y="28.223"/><path class="dk" d="M6.012 30.394h1v2.171h-1z"/><text x="6.012" y="32.064" class="dl">▄</text><path class="dm" d="M7.014 30.394h1v2.171h-1z"/><text x="7.014" y="32.064" class="dn">▄</text><path class="do" d="M8.016 30.394h1v2.171h-1z"/><text x="8.016" y="32.064" class="dp">▄</text><path class="dq" d="M9.018 30.394h1v2.171h-1z"/><text x="9.018" y="32.064" class="dr">▄</text><path class="ds" d="M10.02 30.394h1v2.171h-1z"/><text x="10.02" y="32.064" class="dt">▄</text><path class="du" d="M11.022 30.394h1v2.171h-1z"/><text x="11.022" y="32.064" class="dv">▄</text><path class="dw" d="M12.024 30.394h1v2.171h-1z"/><text x="12.024" y="32.064" class="dx">▄</text><path class="dy" d="M13.026 30.394h1v2.171h-1z"/><text x="13.026" y="32.064" class="dz">▄</text><path class="dA" d="M14.028 30.394h1v2.171h-1z"/><text x="14.028" y="32.064" class="dB">▄</text><path class="dC" d="M15.03 30.394h1v2.171h-1z"/><text x="15.03" y="32.064" class="dD">▄</text><path class="dE" d="M16.032 30.394h1v2.171h-1z"/><text x="16.032" y="32.064" class="dF">▄</text><path class="dG" d="M17.034 30.394h1v2.171h-1z"/><text x="17.034" y="32.064" class="dH">▄</text><path class="dI" d="M18.036 30.394h1v2.171h-1z"/><text x="18.036" y="32.064" class="dJ">▄</text><path class="dK" d="M19.038 30.394h1v2.171h-1z"/><text x="19.038" y="32.064" class="dL">▄</text><path class="dM" d="M20.04 30.394h1v2.171h-1z"/><text x="20.04" y="32.064" class="dN">▄</text><path class="dO" d="M21.042 30.394h1v2.171h-1z"/><text x="21.042" y="32.064" class="dP">▄</text><path class="dQ" d="M22.044 30.394h1v2.171h-1z"/><text x="22.044" y="32.064" class="dR">▄</text><path class="dS" d="M23.046 30.394h1v2.171h-1z"/><text x="23.046" y="32.064" class="dT">▄</text><path class="dU" d="M24.048 30.394h1v2.171h-1z"/><text x="24.048" y="32.064" class="dV">▄</text><path class="dW" d="M25.05 30.394h1v2.171h-1z"/><text x="25.05" y="32.064" class="dX">▄</text><path class="dY" d="M26.052 30.394h1v2.171h-1z"/><text x="26.052" y="32.064" class="dZ">▄</text><path class="ea" d="M27.054 30.394h1v2.171h-1z"/><text x="27.054" y="32.064" class="eb">▄</text><path class="ec" d="M28.056 30.394h1v2.171h-1z"/><text x="28.056" y="32.064" class="ed">▄</text><path class="ee" d="M29.058 30.394h1v2.171h-1z"/><text x="29.058" y="32.064" class="ef">▄</text><path class="eg" d="M30.06 30.394h1v2.171h-1z"/><text x="30.06" y="32.064" class="eh">▄</text><path class="ei" d="M31.062 30.394h1v2.171h-1z"/><text x="31.062" y="32.064" class="ej">▄</text><path class="ek" d="M32.064 30.394h1v2.171h-1z"/><text x="32.064" y="32.064" class="el">▄</text><path class="em" d="M33.066 30.394h1v2.171h-1z"/><text x="33.066" y="32.064" class="en">▄</text><path class="eo" d="M34.068 30.394h1v2.171h-1z"/><text x="34.068" y="32.064" class="ep">▄</text><path class="eq" d="M35.07 30.394h1v2.171h-1z"/><text x="35.07" y="32.064" class="ep">▄</text><path class="er" d="M36.072 30.394h1v2.171h-1z"/><text x="36.072" y="32.064" class="es">▄</text><path class="et" d="M37.074 30.394h1v2.171h-1z"/><text x="37.074" y="32.064" class="eu">▄</text></svg><svg x="900"><use xlink:href="#a"/><use xlink:href="#b" x="22.996" y="32.54"/><use xlink:href="#2"/><use xlink:href="#3" y="2.171"/><use xlink:href="#4" y="4.342"/><use xlink:href="#5" y="21.71"/><use xlink:href="#6" y="23.881"/><use xlink:href="#7" y="26.052"/><use xlink:href="#8" y="28.223"/><use xlink:href="#9" y="30.394"/><path class="ez" d="M6.012 32.565h1v2.171h-1z"/><text x="6.012" y="34.235" class="eA">▄</text><path class="eB" d="M7.014 32.565h1v2.171h-1z"/><text x="7.014" y="34.235" class="eC">▄</text><path class="eD" d="M8.016 32.565h1v2.171h-1z"/><text x="8.016" y="34.235" class="eE">▄</text><path class="eF" d="M9.018 32.565h1v2.171h-1z"/><text x="9.018" y="34.235" class="eG">▄</text><path class="eH" d="M10.02 32.565h1v2.171h-1z"/><text x="10.02" y="34.235" class="eI">▄</text><path class="eJ" d="M11.022 32.565h1v2.171h-1z"/><text x="11.022" y="34.235" class="eK">▄</text><path class="eL" d="M12.024 32.565h1v2.171h-1z"/><text x="12.024" y="34.235" class="eM">▄</text><path class="eN" d="M13.026 32.565h1v2.171h-1z"/><text x="13.026" y="34.235" class="eO">▄</text><path class="eP" d="M14.028 32.565h1v2.171h-1z"/><text x="14.028" y="34.235" class="eQ">▄</text><path class="eR" d="M15.03 32.565h1v2.171h-1z"/><text x="15.03" y="34.235" class="eS">▄</text><path class="eT" d="M16.032 32.565h1v2.171h-1z"/><text x="16.032" y="34.235" class="eU">▄</text><path class="eV" d="M17.034 32.565h1v2.171h-1z"/><text x="17.034" y="34.235" class="eW">▄</text><path class="eX" d="M18.036 32.565h1v2.171h-1z"/><text x="18.036" y="34.235" class="eY">▄</text><path class="eZ" d="M19.038 32.565h1v2.171h-1z"/><text x="19.038" y="34.235" class="fa">▄</text><path class="fb" d="M20.04 32.565h1v2.171h-1z"/><text x="20.04" y="34.235" class="fc">▄</text><path class="fd" d="M21.042 32.565h1v2.171h-1z"/><text x="21.042" y="34.235" class="fe">▄</text><path class="ff" d="M22.044 32.565h1v2.171h-1z"/><text x="22.044" y="34.235" class="fg">▄</text></svg><svg x="960"><use xlink:href="#a"/><use xlink:href="#b" x="17.996" y="34.711"/><use xlink:href="#2"/><use xlink:href="#3" y="2.171"/><use xlink:href="#4" y="4.342"/><use xlink:href="#5" y="21.71"/><use xlink:href="#6" y="23.881"/><use xlink:href="#7" y="26.052"/><use xlink:href="#8" y="28.223"/><use xlink:href="#9" y="30.394"/><use xlink:href="#10" y="32.565"/><path class="fN" d="M17.034 34.736h1v2.171h-1z"/><text x="17.034" y="36.406" class="eA">▄</text></svg><svg x="1020"><use xlink:href="#a"/><use xlink:href="#b" x="6.996" y="36.882"/><use xlink:href="#2"/><use xlink:href="#3" y="2.171"/><use xlink:href="#4" y="4.342"/><use xlink:href="#5" y="21.71"/><use xlink:href="#6" y="23.881"/><use xlink:href="#7" y="26.052"/><use xlink:href="#8" y="28.223"/><use xlink:href="#9" y="30.394"/><use xlink:href="#10" y="32.565"/><use xlink:href="#11" y="34.736"/></svg><svg x="1080"><use xlink:href="#a"/><use xlink:href="#b" x="5.996" y="36.882"/><use xlink:href="#4"/><use xlink:href="#5" y="17.368"/><use xlink:href="#6" y="19.539"/><use xlink:href="#7" y="21.71"/><use xlink:href="#8" y="23.881"/><use xlink:href="#9" y="26.052"/><use xlink:href="#10" y="28.223"/><use xlink:href="#11" y="30.394"/><use xlink:href="#12" y="32.565"/></svg><svg x="1140"><use xlink:href="#a"/><use xlink:href="#b" x="47.996" y="36.882"/><use xlink:href="#5" y="15.197"/><use xlink:href="#6" y="17.368"/><use xlink:href="#7" y="19.539"/><use xlink:href="#8" y="21.71"/><use xlink:href="#9" y="23.881"/><use xlink:href="#10" y="26.052"/><use xlink:href="#11" y="28.223"/><use xlink:href="#12" y="30.394"/></svg><svg x="1200"><use xlink:href="#a"/><use xlink:href="#b" x="-.004" y="36.882"/><use xlink:href="#5" y="10.855"/><use xlink:href="#6" y="13.026"/><use xlink:href="#7" y="15.197"/><use xlink:href="#8" y="17.368"/><use xlink:href="#9" y="19.539"/><use xlink:href="#10" y="21.71"/><use xlink:href="#11" y="23.881"/><use xlink:href="#12" y="26.052"/></svg><svg x="1260"><use xlink:href="#a"/><use xlink:href="#b" x="-.004" y="36.882"/><use xlink:href="#5" y="8.684"/><use xlink:href="#6" y="10.855"/><use xlink:href="#7" y="13.026"/><use xlink:href="#8" y="15.197"/><use xlink:href="#9" y="17.368"/><use xlink:href="#10" y="19.539"/><use xlink:href="#11" y="21.71"/><use xlink:href="#12" y="23.881"/><use xlink:href="#13" y="34.736"/></svg><svg x="1320"><use xlink:href="#a"/><use xlink:href="#b" x="18.996" y="36.882"/><use xlink:href="#5" y="8.684"/><use xlink:href="#6" y="10.855"/><use xlink:href="#7" y="13.026"/><use xlink:href="#8" y="15.197"/><use xlink:href="#9" y="17.368"/><use xlink:href="#10" y="19.539"/><use xlink:href="#11" y="21.71"/><use xlink:href="#12" y="23.881"/><use xlink:href="#13" y="34.736"/><use xlink:href="#1" y="36.907"/></svg></svg></g></g></svg></svg>